<svg width="24" height="24" viewBox="0 0 24 24" fill="none" xmlns="http://www.w3.org/2000/svg">
<path d="M18 8.101H14V7.226H18V8.101ZM18.84 14.226C18.07 16.484 12.891 17.192 12.891 12.666C12.891 8.083 18.399 8.289 18.944 11.794C18.989 12.089 19.006 12.487 18.999 13.043H14.589C14.485 14.758 16.349 14.975 16.993 14.227H18.84V14.226ZM14.629 11.893H17.253C17.138 10.206 14.893 10.083 14.629 11.893ZM8.771 15.969H5V7.239H9.056C12.25 7.286 12.311 10.415 10.643 11.267C12.662 12.002 12.729 15.969 8.771 15.969ZM6.875 10.835H8.84C10.304 10.835 10.536 8.976 8.658 8.976H6.875V10.835ZM8.729 12.289H6.875V14.236H8.699C10.481 14.235 10.372 12.289 8.729 12.289ZM12 2C17.514 2 22 6.486 22 12C22 17.514 17.514 22 12 22C6.486 22 2 17.514 2 12C2 6.486 6.486 2 12 2ZM12 0C5.373 0 0 5.373 0 12C0 18.627 5.373 24 12 24C18.627 24 24 18.627 24 12C24 5.373 18.627 0 12 0V0Z" fill="#0055FF"/>
</svg>
