<svg width="24" height="24" viewBox="0 0 24 24" fill="none" xmlns="http://www.w3.org/2000/svg">
<path fill-rule="evenodd" clip-rule="evenodd" d="M22 12C22 6.486 17.514 2 12 2C6.486 2 2 6.486 2 12C2 17.514 6.486 22 12 22C17.514 22 22 17.514 22 12ZM0 12C0 5.373 5.373 0 12 0C18.627 0 24 5.373 24 12C24 18.627 18.627 24 12 24C5.373 24 0 18.627 0 12ZM12.6282 6.38359H18V17.7118H16.5151V16.9191H14.0985V17.7118H12.6282V6.38359ZM14.0985 7.7816V15.5211H16.5151V7.7816H14.0985ZM8.49384 8.21397H7.51848C7.19821 8.90577 6.83427 9.53991 6.42665 10.1308L5.08735 9.2949C6.01904 7.94013 6.68869 6.5133 7.06719 5L8.56663 5.33149C8.42105 5.83592 8.27548 6.32594 8.11534 6.78714H11.9731V8.21397H10.037C10.0224 9.04989 9.97872 9.82816 9.90594 10.5632H12.1187V11.99H9.70213L9.52744 12.8548C10.4009 13.7195 11.2889 14.6996 12.1915 15.7661L11.2598 17.1641C10.4009 15.9102 9.68757 14.9446 9.10526 14.2528C8.49384 15.7084 7.46025 16.9623 5.98992 18L5 16.7894C6.49944 15.6796 7.4748 14.3392 7.94065 12.7539L8.11534 11.99H5.32027V10.5632H8.34826C8.42105 9.84257 8.46473 9.04989 8.49384 8.21397Z" fill="#0055FF"/>
</svg>
